<svg width="90px" height="25px" viewBox="0 0 90 25" version="1.1" xmlns="http://www.w3.org/2000/svg" xmlns:xlink="http://www.w3.org/1999/xlink">
    <!-- Generator: Sketch 50.2 (55047) - http://www.bohemiancoding.com/sketch -->
    <desc>Created with Sketch.</desc>
    <defs></defs>
    <g id="Page-1" stroke="none" stroke-width="1" fill="none" fill-rule="evenodd">
        <g id="On-Click---03" transform="translate(-673.000000, -497.000000)" fill="#2B2B2B">
            <g id="Logo" transform="translate(673.000000, 497.000000)">
                <path d="M77.0838277,20.5866071 C72.5131263,20.5866071 69.0657114,17.1503571 69.0657114,12.5917857 C69.0657114,8.03285714 72.5131263,4.59428571 77.0838277,4.59428571 C81.6547094,4.59428571 85.0986974,8.03285714 85.0986974,12.5917857 C85.0986974,17.1503571 81.6547094,20.5866071 77.0838277,20.5866071 Z M64.1671142,12.5917857 C64.1671142,19.6658929 69.7187976,25.00125 77.0838277,25.00125 C84.4457916,25.00125 90.0005411,19.6658929 90.0005411,12.5917857 C90.0005411,5.51392857 84.4457916,0.179642857 77.0838277,0.179642857 C69.7187976,0.179642857 64.1671142,5.51392857 64.1671142,12.5917857 Z M27.7748297,9.61857143 L27.8056713,9.50660714 C28.6598597,6.40428571 31.6028056,4.23642857 34.9634669,4.23642857 C38.0642285,4.23642857 40.9546894,6.50428571 41.6911022,9.50892857 L41.7188778,9.61857143 L27.7748297,9.61857143 Z M22.6347295,12.5908929 C22.6347295,19.6653571 28.189479,25.0001786 35.5516232,25.0001786 C41.6755912,25.0001786 44.8847495,21.9810714 46.0266132,20.6089286 L42.8392786,17.7160714 C41.3074749,19.3233929 39.2432465,20.9421429 35.6041082,20.9421429 C33.4718838,20.9421429 31.4572545,20.1848214 29.9254509,18.8067857 C28.4122244,17.4448214 27.5055511,15.60125 27.3756914,13.6171429 L27.3693788,13.5226786 L46.7632064,13.5226786 C46.8095591,13.1060714 46.8095591,12.7853571 46.8095591,12.5908929 C46.8095591,9.16482143 45.6027655,6.02357143 43.4148096,3.74035714 C41.2082766,1.44339286 38.150982,0.178571429 34.8025852,0.178571429 C27.753006,0.178571429 22.6347295,5.39857143 22.6347295,12.5908929 Z M0.180360721,4.85053571 L14.0937475,4.85053571 L13.9729058,4.99160714 L0.180360721,21.5496429 L0.180360721,24.4896429 L20.8738677,24.4896429 L20.8738677,20.3319643 L6.90799599,20.3319643 L7.02865731,20.1871429 L20.8738677,3.6325 L20.8738677,0.688214286 L0.180360721,0.688214286 L0.180360721,4.85053571 Z M56.0250902,3.12553571 L55.629018,1.71857143 L55.3382766,0.689464286 L50.8882365,0.689464286 L50.8882365,24.4903571 L55.7898998,24.4903571 L55.8023447,10.5894643 C55.8023447,8.69964286 56.7431062,7.26 58.0121242,6.26964286 C58.0552305,6.23375 58.1015832,6.20107143 58.1481162,6.16642857 C58.6462725,5.79464286 59.1909619,5.48767857 59.7480962,5.25178571 C59.8099599,5.22267857 59.8718236,5.19589286 59.9367535,5.1725 C60.0327054,5.13428571 60.128477,5.09553571 60.2244289,5.06 L60.227495,5.05732143 C60.8993387,4.81857143 61.5708216,4.67089286 62.1773747,4.61767857 C62.2576353,4.60964286 62.3351904,4.60696429 62.4123848,4.60285714 C62.5052705,4.59714286 62.5950902,4.59428571 62.6816633,4.59428571 C63.0283166,4.59428571 63.331503,4.60285714 63.6069138,4.62678571 L63.6069138,0.185357143 C63.4862525,0.1825 63.3719038,0.179642857 63.2696393,0.179642857 C59.7758717,0.179642857 57.2847295,1.65410714 56.0250902,3.12553571 Z"></path>
            </g>
        </g>
    </g>
</svg>